<svg xmlns="http://www.w3.org/2000/svg" viewBox="0 0 143.33 165.62">
    <g>
        <g>
            <polygon fill="#ff324e"
                points="104.96 54.72 104.97 41.33 53.01 11.3 52.99 11.31 52.99 11.31 19.77 30.47 19.77 43.85 53 24.69 104.96 54.72" />
            <polygon fill="#ff324e"
                points="11.59 35.18 0.01 41.86 0.01 55.31 11.59 48.61 11.59 35.18" />
            <polygon fill="#ff324e"
                points="52.76 117.95 52.79 57.94 41.19 64.62 41.17 124.64 41.18 124.65 41.18 124.65 93.14 154.68 123.42 137.22 123.42 123.84 93.15 141.3 52.76 117.95" />
            <polygon fill="#ff324e"
                points="111.8 36.01 111.82 82.66 59.87 112.69 71.46 119.38 123.42 89.34 123.39 29.33 123.39 29.33 123.39 29.31 92.38 11.42 80.76 18.1 111.8 36.01" />
            <polygon fill="#ff324e"
                points="31.82 127.9 31.8 81.25 31.83 81.23 31.85 67.84 20.2 74.57 20.23 134.58 20.23 134.58 20.23 134.6 53.56 153.82 65.37 147.25 31.82 127.9" />
            <polygon fill="#ff324e"
                points="131.71 95.42 79.72 125.4 91.31 132.1 143.29 102.11 143.29 102.1 143.3 102.09 143.32 62.84 131.73 56.37 131.71 95.42" />
            <polygon fill="#ff324e"
                points="103.99 78.81 103.99 65.43 52.03 35.4 52.02 35.4 52.02 35.4 0.03 65.39 0.01 100.27 11.6 106.91 11.61 72.09 52.03 48.78 103.99 78.81" />
            <polygon fill="#ff324e"
                points="131.68 33.78 131.69 46.56 143.32 52.88 143.33 40.11 131.68 33.78" />
            <polygon fill="#ff324e"
                points="131.6 132.5 143.31 125.75 143.31 112.37 131.6 119.12 131.6 132.5" />
            <polygon fill="#ff324e"
                points="61.82 158.58 74.02 165.62 85.63 158.94 73.63 152.01 61.82 158.58" />
            <polygon fill="#ff324e" points="0 122.99 11.59 129.63 11.59 116.33 0.01 109.69 0 122.99" />
            <polygon fill="#ff324e" points="84.18 6.7 72.57 0 60.95 6.68 72.57 13.38 84.18 6.7" />
        </g>
    </g>
</svg>